<svg fill="none" height="64" viewBox="0 0 191 64" width="191" xmlns="http://www.w3.org/2000/svg"><g fill="#202020"><path d="m31.9647 0c-17.6475 0-31.9647 14.333-31.9647 32s14.3172 32 31.9647 32c17.6476 0 31.9648-14.333 31.9648-32s-14.3172-32-31.9648-32zm-15.7296 50.8279 11.0167-40.95999h6.1253l-11.0166 40.95999zm35.1761-15.0474-3.3451 2.7088-5.3225-6.0428-5.5456 6.0428-3.4789-2.56 4.4007-6.6828-7.2552-2.8428 1.2934-4.6288 7.6567 1.9944.6393-7.6056h4.3412l.6393 7.6056 7.2553-1.8456 1.4867 4.48-7.1809 2.8428z"/><path d="m95.4332 26.3736c-.4906-1.7563-2.0219-3.3489-4.9211-3.3489-2.6315 0-4.6237 1.2503-4.6088 3.0661-.0149 1.5479 1.0555 2.4856 3.7763 3.0958l4.5642.9823c5.0401 1.1014 7.4932 3.4382 7.5232 7.2484-.015 5.0753-4.7281 8.5432-11.4184 8.5432-6.5565 0-10.6896-2.9023-11.4627-7.8288l6.1402-.5953c.5352 2.4111 2.4234 3.6614 5.3076 3.6614 2.9884 0 4.9806-1.3693 4.9806-3.2 0-1.5182-1.1448-2.5154-3.5979-3.0512l-4.5643-.9526c-5.1292-1.0567-7.5377-3.6465-7.5229-7.546-.0148-4.9414 4.371-8.1116 10.8086-8.1116 6.2591 0 9.8872 2.8874 10.7492 7.4269z"/><path d="m102.54 32.2084c0-8.2605 4.995-13.8865 12.652-13.8865 6.571 0 12.221 4.1228 12.221 13.5144v1.9349h-18.629c.06 4.5841 2.751 7.2632 6.824 7.2632 2.721 0 4.802-1.1907 5.65-3.453l5.887.6549c-1.115 4.6586-5.397 7.6949-11.626 7.6949-8.058.0148-12.979-5.3284-12.979-13.7228zm18.837-2.6791c-.03-3.6465-2.468-6.2958-6.096-6.2958-3.761 0-6.289 2.8725-6.467 6.2958z"/><path d="m128.81 18.9916h6.022v4.5396h.312c1.115-3.0512 3.791-4.8968 7.374-4.8968 3.598 0 6.2 1.8605 7.226 4.8968h.282c1.189-2.9768 4.148-4.8968 8.028-4.8968 4.907 0 8.356 3.1703 8.356 9.1386v17.9647h-6.319v-16.9675c0-3.3041-2.022-4.8074-4.564-4.8074-3.048 0-4.832 2.0837-4.832 5.1051v16.6847h-6.185v-17.2503c0-2.7534-1.828-4.5395-4.49-4.5395-2.72 0-4.906 2.2326-4.906 5.5219v16.2679h-6.304z"/><path d="m167.956 38.5786c0-6.0279 4.966-7.5758 10.139-8.1414 4.713-.506 6.616-.5953 6.616-2.4112v-.1041c0-2.6345-1.605-4.1228-4.519-4.1228-3.078 0-4.862 1.5628-5.486 3.3935l-5.888-.8335c1.398-4.8819 5.709-7.3824 11.329-7.3824 5.1 0 10.853 2.1284 10.853 9.1982v17.9051h-6.051v-3.6763h-.208c-1.145 2.2475-3.657 4.2121-7.85 4.2121-5.085 0-8.935-2.7832-8.935-8.0372zm16.77-2.0986v-3.1553c-.818.6548-4.118 1.0865-5.783 1.3097-2.825.4019-4.921 1.414-4.921 3.84 0 2.3219 1.873 3.5126 4.504 3.5126 3.807 0 6.2-2.5303 6.2-5.507z"/></g></svg>